<mxfile host="Electron" modified="2024-07-06T00:59:19.018Z" agent="Mozilla/5.0 (Windows NT 10.0; Win64; x64) AppleWebKit/537.36 (KHTML, like Gecko) draw.io/21.2.8 Chrome/112.0.5615.165 Electron/24.2.0 Safari/537.36" etag="EqS16Nvb85q-_0X8UA_R" version="21.2.8" type="device">
  <diagram id="C5RBs43oDa-KdzZeNtuy" name="Page-1">
    <mxGraphModel dx="1418" dy="820" grid="1" gridSize="10" guides="1" tooltips="1" connect="1" arrows="1" fold="1" page="1" pageScale="1" pageWidth="827" pageHeight="1169" math="0" shadow="0">
      <root>
        <mxCell id="WIyWlLk6GJQsqaUBKTNV-0" />
        <mxCell id="WIyWlLk6GJQsqaUBKTNV-1" parent="WIyWlLk6GJQsqaUBKTNV-0" />
        <mxCell id="zk2g2Kc4k1uOoYyIB99u-142" value="" style="shape=table;startSize=0;container=1;collapsible=0;childLayout=tableLayout;fontSize=16;" vertex="1" parent="WIyWlLk6GJQsqaUBKTNV-1">
          <mxGeometry x="260" y="295" width="410" height="290" as="geometry" />
        </mxCell>
        <mxCell id="zk2g2Kc4k1uOoYyIB99u-143" value="" style="shape=tableRow;horizontal=0;startSize=0;swimlaneHead=0;swimlaneBody=0;strokeColor=inherit;top=0;left=0;bottom=0;right=0;collapsible=0;dropTarget=0;fillColor=none;points=[[0,0.5],[1,0.5]];portConstraint=eastwest;fontSize=16;" vertex="1" parent="zk2g2Kc4k1uOoYyIB99u-142">
          <mxGeometry width="410" height="97" as="geometry" />
        </mxCell>
        <mxCell id="zk2g2Kc4k1uOoYyIB99u-144" value="" style="shape=partialRectangle;html=1;whiteSpace=wrap;connectable=0;strokeColor=#d6b656;overflow=hidden;fillColor=#fff2cc;top=0;left=0;bottom=0;right=0;pointerEvents=1;fontSize=16;" vertex="1" parent="zk2g2Kc4k1uOoYyIB99u-143">
          <mxGeometry width="137" height="97" as="geometry">
            <mxRectangle width="137" height="97" as="alternateBounds" />
          </mxGeometry>
        </mxCell>
        <mxCell id="zk2g2Kc4k1uOoYyIB99u-145" value="" style="shape=partialRectangle;html=1;whiteSpace=wrap;connectable=0;strokeColor=#82b366;overflow=hidden;fillColor=#d5e8d4;top=0;left=0;bottom=0;right=0;pointerEvents=1;fontSize=16;" vertex="1" parent="zk2g2Kc4k1uOoYyIB99u-143">
          <mxGeometry x="137" width="136" height="97" as="geometry">
            <mxRectangle width="136" height="97" as="alternateBounds" />
          </mxGeometry>
        </mxCell>
        <mxCell id="zk2g2Kc4k1uOoYyIB99u-146" value="" style="shape=partialRectangle;html=1;whiteSpace=wrap;connectable=0;strokeColor=#82b366;overflow=hidden;fillColor=#d5e8d4;top=0;left=0;bottom=0;right=0;pointerEvents=1;fontSize=16;" vertex="1" parent="zk2g2Kc4k1uOoYyIB99u-143">
          <mxGeometry x="273" width="137" height="97" as="geometry">
            <mxRectangle width="137" height="97" as="alternateBounds" />
          </mxGeometry>
        </mxCell>
        <mxCell id="zk2g2Kc4k1uOoYyIB99u-147" value="" style="shape=tableRow;horizontal=0;startSize=0;swimlaneHead=0;swimlaneBody=0;strokeColor=inherit;top=0;left=0;bottom=0;right=0;collapsible=0;dropTarget=0;fillColor=none;points=[[0,0.5],[1,0.5]];portConstraint=eastwest;fontSize=16;" vertex="1" parent="zk2g2Kc4k1uOoYyIB99u-142">
          <mxGeometry y="97" width="410" height="96" as="geometry" />
        </mxCell>
        <mxCell id="zk2g2Kc4k1uOoYyIB99u-148" value="" style="shape=partialRectangle;html=1;whiteSpace=wrap;connectable=0;strokeColor=#d6b656;overflow=hidden;fillColor=#fff2cc;top=0;left=0;bottom=0;right=0;pointerEvents=1;fontSize=16;" vertex="1" parent="zk2g2Kc4k1uOoYyIB99u-147">
          <mxGeometry width="137" height="96" as="geometry">
            <mxRectangle width="137" height="96" as="alternateBounds" />
          </mxGeometry>
        </mxCell>
        <mxCell id="zk2g2Kc4k1uOoYyIB99u-149" value="" style="shape=partialRectangle;html=1;whiteSpace=wrap;connectable=0;strokeColor=#d6b656;overflow=hidden;fillColor=#fff2cc;top=0;left=0;bottom=0;right=0;pointerEvents=1;fontSize=16;" vertex="1" parent="zk2g2Kc4k1uOoYyIB99u-147">
          <mxGeometry x="137" width="136" height="96" as="geometry">
            <mxRectangle width="136" height="96" as="alternateBounds" />
          </mxGeometry>
        </mxCell>
        <mxCell id="zk2g2Kc4k1uOoYyIB99u-150" value="" style="shape=partialRectangle;html=1;whiteSpace=wrap;connectable=0;strokeColor=#82b366;overflow=hidden;fillColor=#d5e8d4;top=0;left=0;bottom=0;right=0;pointerEvents=1;fontSize=16;" vertex="1" parent="zk2g2Kc4k1uOoYyIB99u-147">
          <mxGeometry x="273" width="137" height="96" as="geometry">
            <mxRectangle width="137" height="96" as="alternateBounds" />
          </mxGeometry>
        </mxCell>
        <mxCell id="zk2g2Kc4k1uOoYyIB99u-151" value="" style="shape=tableRow;horizontal=0;startSize=0;swimlaneHead=0;swimlaneBody=0;strokeColor=inherit;top=0;left=0;bottom=0;right=0;collapsible=0;dropTarget=0;fillColor=none;points=[[0,0.5],[1,0.5]];portConstraint=eastwest;fontSize=16;" vertex="1" parent="zk2g2Kc4k1uOoYyIB99u-142">
          <mxGeometry y="193" width="410" height="97" as="geometry" />
        </mxCell>
        <mxCell id="zk2g2Kc4k1uOoYyIB99u-152" value="" style="shape=partialRectangle;html=1;whiteSpace=wrap;connectable=0;strokeColor=#d6b656;overflow=hidden;fillColor=#fff2cc;top=0;left=0;bottom=0;right=0;pointerEvents=1;fontSize=16;" vertex="1" parent="zk2g2Kc4k1uOoYyIB99u-151">
          <mxGeometry width="137" height="97" as="geometry">
            <mxRectangle width="137" height="97" as="alternateBounds" />
          </mxGeometry>
        </mxCell>
        <mxCell id="zk2g2Kc4k1uOoYyIB99u-153" value="" style="shape=partialRectangle;html=1;whiteSpace=wrap;connectable=0;strokeColor=#d6b656;overflow=hidden;fillColor=#fff2cc;top=0;left=0;bottom=0;right=0;pointerEvents=1;fontSize=16;" vertex="1" parent="zk2g2Kc4k1uOoYyIB99u-151">
          <mxGeometry x="137" width="136" height="97" as="geometry">
            <mxRectangle width="136" height="97" as="alternateBounds" />
          </mxGeometry>
        </mxCell>
        <mxCell id="zk2g2Kc4k1uOoYyIB99u-154" value="" style="shape=partialRectangle;html=1;whiteSpace=wrap;connectable=0;strokeColor=#82b366;overflow=hidden;fillColor=#d5e8d4;top=0;left=0;bottom=0;right=0;pointerEvents=1;fontSize=16;" vertex="1" parent="zk2g2Kc4k1uOoYyIB99u-151">
          <mxGeometry x="273" width="137" height="97" as="geometry">
            <mxRectangle width="137" height="97" as="alternateBounds" />
          </mxGeometry>
        </mxCell>
        <mxCell id="zk2g2Kc4k1uOoYyIB99u-155" value="Actor" style="shape=umlActor;verticalLabelPosition=bottom;verticalAlign=top;html=1;outlineConnect=0;" vertex="1" parent="WIyWlLk6GJQsqaUBKTNV-1">
          <mxGeometry x="590" y="300" width="30" height="60" as="geometry" />
        </mxCell>
        <mxCell id="zk2g2Kc4k1uOoYyIB99u-156" value="" style="shape=flexArrow;endArrow=classic;html=1;rounded=0;endWidth=18;endSize=4.85;" edge="1" parent="WIyWlLk6GJQsqaUBKTNV-1" target="zk2g2Kc4k1uOoYyIB99u-155">
          <mxGeometry width="50" height="50" relative="1" as="geometry">
            <mxPoint x="350" y="570" as="sourcePoint" />
            <mxPoint x="510" y="350" as="targetPoint" />
          </mxGeometry>
        </mxCell>
        <mxCell id="zk2g2Kc4k1uOoYyIB99u-157" value="PT &amp;amp; CR" style="text;html=1;align=center;verticalAlign=middle;resizable=0;points=[];autosize=1;strokeColor=none;fillColor=none;" vertex="1" parent="WIyWlLk6GJQsqaUBKTNV-1">
          <mxGeometry x="290" y="490" width="70" height="30" as="geometry" />
        </mxCell>
        <mxCell id="zk2g2Kc4k1uOoYyIB99u-158" value="A &amp;amp; B" style="text;html=1;align=center;verticalAlign=middle;resizable=0;points=[];autosize=1;strokeColor=none;fillColor=none;" vertex="1" parent="WIyWlLk6GJQsqaUBKTNV-1">
          <mxGeometry x="620" y="295" width="50" height="30" as="geometry" />
        </mxCell>
      </root>
    </mxGraphModel>
  </diagram>
</mxfile>
